<?xml version="1.0" encoding="utf-8"?>
<!-- Generator: Adobe Illustrator 26.3.1, SVG Export Plug-In . SVG Version: 6.00 Build 0)  -->
<svg version="1.1" id="Layer_1" xmlns="http://www.w3.org/2000/svg" xmlns:xlink="http://www.w3.org/1999/xlink" x="0px" y="0px"
	 viewBox="0 0 65.6 65.6" style="enable-background:new 0 0 65.6 65.6;" xml:space="preserve">
<style type="text/css">
	.st0{fill:#4B77BB;}
</style>
<g>
	<path class="st0" d="M14.1,57.7c0.5,4.6,4.4,8.1,9,7.9c4.6-0.1,8.4-3.8,8.6-8.4V4.4C31.6,1.9,29.5,0,27,0s-4.5,1.9-4.6,4.4
		c0,1.2,0.5,2.3,1.4,3.1c0.4,0.4,0.5,1.2,0,1.6c-0.2,0.2-0.5,0.4-0.8,0.4c-0.3,0-0.6-0.1-0.8-0.3c-1.3-1.2-2.1-2.9-2.1-4.7
		c0-0.1,0-0.1,0-0.2h0c-0.5-0.1-1-0.1-1.5-0.1C13.4,4,9,8.2,8.9,13.4c0,0.4,0,0.9,0.1,1.3c1.3,0,2.6,0.3,3.7,1
		c0.5,0.3,0.7,1,0.4,1.5c-0.3,0.5-1,0.7-1.6,0.4c-1.4-0.8-3.1-0.9-4.5-0.3c-1.1,0.5-2,1.4-2.4,2.6c-0.4,1.1-0.3,2.3,0.2,3.3
		c0.6,1.1,1.6,2,2.8,2.3c0.5,0.2,0.9,0.7,0.8,1.2c-0.1,0.6-0.6,1-1.1,1c-0.1,0-0.2,0-0.3,0c-0.7-0.2-1.3-0.5-1.9-0.9
		C2.1,28.3,0,31.3,0,34.7c0.1,4.9,4.2,8.8,9.2,8.7c0.3,0,0.6,0.1,0.8,0.3c0.2,0.2,0.3,0.5,0.3,0.8c0,0.3-0.1,0.6-0.3,0.8
		c-0.2,0.2-0.5,0.3-0.8,0.3c-1,0-2.1-0.2-3.1-0.5c-1.2,1.2-1.9,2.8-1.9,4.5c0.1,3.6,3.1,6.4,6.7,6.4c0.6,0,1.2-0.1,1.8-0.2
		c1.6-0.4,3-1.4,3.9-2.8c0.2-0.3,0.4-0.4,0.7-0.5c0.3-0.1,0.6,0,0.9,0.2c0.3,0.2,0.4,0.4,0.5,0.7c0.1,0.3,0,0.6-0.2,0.9
		C17.3,55.8,15.9,57,14.1,57.7L14.1,57.7z M14.7,22.3c0.1-0.6,0.7-1,1.4-0.9c1.6,0.4,3.3-0.3,4.3-1.7c0.3-0.4,0.5-0.8,0.6-1.2
		c0.3-1.2,0-2.4-0.8-3.3c-0.2-0.3-0.5-0.5-0.8-0.7c-0.3-0.2-0.4-0.4-0.5-0.7c-0.1-0.3,0-0.6,0.2-0.9c0.4-0.5,1.1-0.6,1.6-0.3
		c0.5,0.3,0.9,0.7,1.2,1.1c1.2,1.4,1.7,3.4,1.3,5.2c-0.2,0.7-0.5,1.4-0.9,2c-0.1,0.2-0.3,0.3-0.4,0.5c0.1,1.8,1.4,3.4,3.2,3.7
		c0.6,0.1,1,0.6,0.9,1.2c-0.1,0.6-0.5,1-1.1,1c-0.1,0-0.1,0-0.2,0c-2.3-0.4-4.2-2.1-4.8-4.3c-0.9,0.4-1.8,0.6-2.8,0.6
		c-0.5,0-0.9,0-1.4-0.2c-0.3-0.1-0.5-0.2-0.7-0.5C14.7,22.9,14.7,22.6,14.7,22.3L14.7,22.3z M10.3,37.8L10.3,37.8
		c-0.4,0-0.8,0-1.2-0.1c-0.6-0.1-1-0.7-0.9-1.4c0.1-0.6,0.7-1,1.4-0.9c1.2,0.3,2.4-0.2,3.1-1.2c0.2-0.3,0.3-0.5,0.4-0.9
		c0.2-0.8,0-1.7-0.6-2.4c-0.2-0.2-0.4-0.4-0.6-0.5c-0.5-0.4-0.6-1.1-0.3-1.6c0.4-0.5,1-0.6,1.6-0.3c0.4,0.3,0.7,0.6,1,0.9
		c1,1.2,1.4,2.8,1,4.3c-0.1,0.6-0.4,1.2-0.7,1.7C13.6,37,12,37.8,10.3,37.8L10.3,37.8z M16.1,46.6L16.1,46.6
		c-0.2,0.2-0.4,0.4-0.7,0.5c-0.3,0-0.6,0-0.8-0.2c-0.5-0.4-0.6-1.1-0.3-1.6c1.5-2.1,4.1-3.1,6.7-2.6c0.1,0,0.1,0,0.2,0.1v0
		c0-1.5,0.6-3,1.7-4.1c0.2-0.2,0.5-0.3,0.8-0.4c0.3,0,0.6,0.1,0.8,0.3c0.2,0.2,0.3,0.5,0.3,0.8c0,0.3-0.1,0.6-0.3,0.8
		c-0.9,0.9-1.3,2.3-1,3.6c0.6,0.5,1.2,1,1.6,1.7c0.9,1.4,1.2,3,0.9,4.6c-0.1,0.5-0.6,0.9-1.1,0.9c-0.1,0-0.2,0-0.2,0
		c-0.6-0.1-1-0.7-0.9-1.3c0.2-1,0-2.1-0.5-2.9c-0.6-0.9-1.6-1.6-2.7-1.8C18.8,44.5,17.1,45.2,16.1,46.6L16.1,46.6z"/>
	<path class="st0" d="M56.5,43.5c4.9,0.1,9-3.8,9.1-8.7c0-3.4-2-6.5-5.1-7.9c-0.6,0.4-1.2,0.7-1.9,0.9c-0.1,0-0.2,0-0.3,0
		c-0.5,0-1-0.3-1.1-0.8c-0.2-0.6,0.2-1.2,0.8-1.4c1.2-0.3,2.2-1.2,2.8-2.3c0.5-1,0.6-2.2,0.2-3.3c-0.4-1.1-1.3-2.1-2.4-2.6
		c-1.5-0.7-3.2-0.6-4.5,0.3c-0.3,0.2-0.6,0.2-0.9,0.1c-0.3-0.1-0.5-0.3-0.7-0.5c-0.2-0.3-0.2-0.6-0.1-0.8c0.1-0.3,0.2-0.5,0.5-0.7
		c1.1-0.7,2.4-1,3.7-1c0.1-0.4,0.1-0.9,0.1-1.3C56.6,8.2,52.3,4,47,4.1c-0.5,0-1,0-1.5,0.1v0.2c0,1.8-0.7,3.5-2,4.7
		c-0.2,0.2-0.5,0.3-0.8,0.3c-0.3,0-0.6-0.1-0.8-0.4c-0.4-0.5-0.4-1.2,0-1.6c0.9-0.8,1.3-1.9,1.3-3.1C43.1,1.9,41.1,0,38.6,0
		c-2.5,0-4.5,1.9-4.6,4.4v52.8v0c0,0,0,0,0,0c0.2,4.6,3.9,8.3,8.5,8.4s8.5-3.3,9-7.9c-1.7-0.7-3.2-1.8-4.3-3.4
		c-0.3-0.5-0.2-1.2,0.3-1.6c0.2-0.2,0.6-0.2,0.8-0.2c0.3,0.1,0.6,0.2,0.7,0.5c0.9,1.4,2.3,2.4,3.8,2.8c0.6,0.2,1.2,0.3,1.9,0.2
		c3.6,0.1,6.6-2.8,6.7-6.4c0-1.7-0.7-3.3-2-4.5c-1,0.3-2,0.5-3.1,0.5c-0.3,0-0.6-0.1-0.8-0.3s-0.3-0.5-0.3-0.8
		c0-0.3,0.1-0.6,0.3-0.8C55.9,43.6,56.2,43.4,56.5,43.5L56.5,43.5z M40.6,25.3L40.6,25.3c1.8-0.3,3.2-1.9,3.2-3.7
		c-0.2-0.2-0.3-0.3-0.5-0.5c-1.5-2.2-1.4-5.2,0.4-7.2c0.4-0.4,0.8-0.8,1.2-1.1c0.2-0.2,0.5-0.2,0.8-0.2c0.3,0.1,0.6,0.2,0.7,0.5
		c0.2,0.2,0.2,0.6,0.2,0.9c-0.1,0.3-0.2,0.6-0.5,0.7c-0.3,0.2-0.6,0.4-0.8,0.7c-0.8,0.9-1.1,2.1-0.8,3.3c0.1,0.4,0.3,0.8,0.5,1.2
		c1,1.4,2.7,2.1,4.3,1.7c0.6-0.1,1.2,0.2,1.4,0.9c0.1,0.3,0,0.6-0.2,0.9c-0.2,0.2-0.4,0.4-0.7,0.5c-0.5,0.1-0.9,0.2-1.4,0.2
		c-1,0-1.9-0.2-2.8-0.7c-0.6,2.2-2.5,3.9-4.8,4.4c-0.1,0-0.1,0-0.2,0c-0.5,0-1-0.4-1.1-0.9C39.6,26,40,25.4,40.6,25.3L40.6,25.3z
		 M51.1,46.8c-0.2,0.2-0.5,0.2-0.8,0.2c-0.3-0.1-0.6-0.2-0.7-0.5c-1-1.4-2.7-2-4.4-1.7c-1.1,0.2-2.1,0.9-2.7,1.8
		c-0.6,0.9-0.8,1.9-0.6,2.9c0.1,0.3,0,0.6-0.2,0.8c-0.2,0.3-0.4,0.4-0.7,0.5c-0.1,0-0.2,0-0.2,0c-0.5,0-1-0.4-1.1-0.9
		c-0.3-1.6,0-3.3,0.9-4.6c0.4-0.6,1-1.2,1.6-1.7c0.3-1.3-0.1-2.6-1-3.6c-0.2-0.2-0.3-0.5-0.3-0.8c0-0.3,0.1-0.6,0.3-0.8
		c0.2-0.2,0.5-0.3,0.8-0.3c0.3,0,0.6,0.1,0.8,0.4c1,1.1,1.7,2.6,1.7,4.1c0.1,0,0.1,0,0.2-0.1v0c2.5-0.5,5.1,0.5,6.6,2.6
		c0.2,0.2,0.2,0.5,0.2,0.9C51.5,46.4,51.4,46.7,51.1,46.8L51.1,46.8z M51,35.5c-0.4-0.5-0.6-1-0.7-1.6c-0.4-1.5,0-3.2,1-4.3
		c0.3-0.3,0.6-0.7,1-0.9c0.5-0.3,1.2-0.2,1.6,0.3c0.2,0.2,0.2,0.5,0.2,0.8c-0.1,0.3-0.2,0.6-0.5,0.7c-0.2,0.2-0.4,0.3-0.6,0.5
		c-0.6,0.6-0.8,1.5-0.6,2.3c0.1,0.3,0.2,0.6,0.4,0.9c0.7,1,1.9,1.5,3.1,1.2c0.3-0.1,0.6,0,0.9,0.2c0.2,0.2,0.4,0.4,0.5,0.7
		c0.1,0.6-0.2,1.2-0.8,1.4c-0.4,0.1-0.8,0.1-1.2,0.1C53.6,37.8,52,36.9,51,35.5L51,35.5z"/>
</g>
</svg>
