<?xml version="1.0" encoding="utf-8"?>
<!-- Generator: Adobe Illustrator 26.3.1, SVG Export Plug-In . SVG Version: 6.00 Build 0)  -->
<svg version="1.1" id="Layer_1" xmlns="http://www.w3.org/2000/svg" xmlns:xlink="http://www.w3.org/1999/xlink" x="0px" y="0px"
	 viewBox="0 0 61.1 48.1" style="enable-background:new 0 0 61.1 48.1;" xml:space="preserve">
<style type="text/css">
	.st0{fill-rule:evenodd;clip-rule:evenodd;fill:#FFFFFF;}
</style>
<path class="st0" d="M30.5,17c-3.1,0-5.6,2.5-5.6,5.6s2.5,5.6,5.6,5.6c3.1,0,5.6-2.5,5.6-5.6S33.6,17,30.5,17z M11.7,3.6
	c3.2-3.2,10-2,17.4,2.4c-1.5,1-3.1,2.2-4.6,3.4c-5.3,0.5-10.1,1.7-14,3.4C9.4,8.8,9.8,5.5,11.7,3.6L11.7,3.6z M49.4,3.6
	c2,2,2.3,5.3,1.2,9.2c-3.9-1.7-8.7-2.8-14-3.4C35.1,8.2,33.5,7,32,6C39.4,1.6,46.2,0.4,49.4,3.6L49.4,3.6z M55.6,28.2
	c-0.8,0.7-1.8,1.5-2.9,2.1c-0.8-2-1.9-4.1-3.2-6.2c1.7-2.8,3-5.5,3.9-8.1c3.1,2,5,4.4,5,7c0,0.5-0.1,1-0.2,1.5
	c-0.1,0.2-0.1,0.4-0.2,0.6c-0.1,0.2-0.2,0.5-0.3,0.7c-0.1,0.2-0.2,0.3-0.3,0.5c-0.1,0.2-0.3,0.4-0.4,0.6c-0.2,0.3-0.5,0.6-0.7,0.9
	C56,27.8,55.8,28,55.6,28.2L55.6,28.2z M51,42.9c-3.2,3.2-9.8,2-17-2.2c0.9-0.6,1.8-1.3,2.6-2c1-0.1,2-0.2,3-0.4
	c1-0.1,1.9-0.3,2.8-0.5c0.9-0.2,1.8-0.4,2.7-0.6c2.2-0.6,4.2-1.3,6-2.1c0.5-0.2,0.9-0.4,1.3-0.6C53.2,38,52.8,41,51,42.9L51,42.9z
	 M10.1,42.9C8.3,41,7.9,38,8.7,34.5c0.4,0.2,0.9,0.4,1.3,0.6c0.7,0.3,1.5,0.6,2.3,0.9c1.2,0.5,2.6,0.9,4,1.2
	c0.8,0.2,1.6,0.4,2.4,0.6c0.9,0.2,1.9,0.4,2.8,0.5c0.9,0.1,1.8,0.3,2.8,0.4c0.1,0,0.2,0,0.2,0c0.9,0.7,1.7,1.4,2.6,2
	C19.9,44.9,13.2,46,10.1,42.9L10.1,42.9z M30.5,9.2c-1.1,0-2.2,0-3.3,0.1c1.1-0.8,2.2-1.6,3.3-2.3c1.1,0.7,2.2,1.5,3.3,2.3
	C32.8,9.2,31.7,9.2,30.5,9.2z M41.1,13.5c-0.8-0.8-1.6-1.5-2.4-2.3c4.4,0.6,8.3,1.6,11.5,3c-0.7,2-1.7,4.1-3,6.4
	C45.4,18.2,43.4,15.8,41.1,13.5L41.1,13.5z M13.9,20.6c-1.3-2.2-2.3-4.4-3-6.4c3.2-1.4,7.1-2.4,11.5-3c-0.8,0.7-1.6,1.5-2.4,2.3
	C17.7,15.8,15.7,18.2,13.9,20.6L13.9,20.6z M38.4,31.9c-1.1,1.1-2.2,2.1-3.3,3.1c-1.5,0.1-3,0.2-4.5,0.2c-1.5,0-3-0.1-4.5-0.2
	c-1.1-1-2.2-2-3.3-3.1c-3.2-3.2-5.9-6.6-8-9.8c1.8-2.5,3.9-5,6.3-7.4c1.3-1.3,2.7-2.5,4-3.7c1.8-0.2,3.6-0.2,5.4-0.2
	c1.9,0,3.7,0.1,5.4,0.2c1.3,1.1,2.7,2.3,4,3.7c2.4,2.4,4.5,4.9,6.3,7.4C44.2,25.3,41.6,28.7,38.4,31.9L38.4,31.9z M13.9,32.7
	c-1.1-0.3-2.1-0.7-3-1.1c-0.4-0.2-0.8-0.3-1.1-0.5c0.7-1.8,1.6-3.6,2.8-5.5c1.9,2.9,4.3,5.8,7,8.6C17.5,33.7,15.7,33.2,13.9,32.7
	L13.9,32.7z M50.2,31.5c-1,0.4-1.9,0.8-3,1.1c-1.7,0.6-3.6,1.1-5.6,1.4c2.7-2.8,5.1-5.7,7-8.6c1.1,1.9,2.1,3.7,2.8,5.5
	C51,31.2,50.6,31.3,50.2,31.5L50.2,31.5z M4.4,27.1c-1.1-1.3-1.7-2.7-1.7-4.2c0-2.6,1.8-5,5-7c0.9,2.6,2.2,5.3,3.9,8.1
	c-1.3,2.1-2.4,4.2-3.2,6.2c-1.1-0.7-2.1-1.4-2.9-2.1C5.1,27.8,4.8,27.5,4.4,27.1L4.4,27.1z M7,33.5c0.1,0.1,0.2,0.1,0.3,0.2
	c-1.4,5-0.9,9.4,1.7,12c4.2,4.2,12.7,2.8,21.6-2.7c8.9,5.5,17.4,6.8,21.6,2.7c2.6-2.6,3.1-6.9,1.7-12c0.1-0.1,0.2-0.1,0.3-0.2
	c1.9-1.1,3.4-2.3,4.6-3.7c0.2-0.2,0.4-0.5,0.6-0.7c0.3-0.5,0.7-0.9,0.9-1.4c0.2-0.5,0.4-1,0.6-1.5c0.2-0.5,0.2-1,0.3-1.5
	c0-0.2,0-0.5,0-0.8c0-3.7-2.7-7-7.3-9.6c1.4-5,0.9-9.4-1.7-12C48-1.7,39.4-0.4,30.6,5.1C21.7-0.4,13.1-1.7,9,2.4
	c-2.6,2.6-3.1,6.9-1.7,12c-0.1,0.1-0.2,0.1-0.3,0.2c-0.9,0.6-1.8,1.1-2.5,1.8c-1,0.8-1.9,1.7-2.6,2.6C0.7,20.5,0,22.3,0,24.1
	c0,0.2,0,0.5,0,0.8c0.1,0.5,0.2,1,0.3,1.5c0.2,0.5,0.4,1,0.6,1.5c0.2,0.5,0.6,0.9,0.9,1.4c0.3,0.3,0.6,0.7,0.9,1
	C3.8,31.4,5.3,32.5,7,33.5L7,33.5z"/>
</svg>
