<?xml version="1.0" encoding="utf-8"?>
<!-- Generator: Adobe Illustrator 26.3.1, SVG Export Plug-In . SVG Version: 6.00 Build 0)  -->
<svg version="1.1" id="Layer_1" xmlns="http://www.w3.org/2000/svg" xmlns:xlink="http://www.w3.org/1999/xlink" x="0px" y="0px"
	 viewBox="0 0 279 76.3" style="enable-background:new 0 0 279 76.3;" xml:space="preserve">
<style type="text/css">
	.st0{fill:#4B77BB;}
	.st1{fill-rule:evenodd;clip-rule:evenodd;fill:#4B77BB;}
</style>
<g>
	<g>
		<path class="st0" d="M47.8,20c4.5,4.5,6.7,11,6.7,19.4V76h-4V39.6c0-7.4-1.9-13-5.6-16.9c-3.7-3.9-9-5.8-15.9-5.8
			c-7.8,0-13.9,2.3-18.4,6.9C6.2,28.4,4,34.6,4,42.4V76H0V13.7h3.8v15.2c2-4.9,5.2-8.7,9.7-11.5c4.4-2.8,9.7-4.2,15.9-4.2
			C37.2,13.2,43.3,15.5,47.8,20z"/>
		<path class="st0" d="M159.6,72c-1.4,1.4-3.3,2.4-5.5,3.2c-2.2,0.8-4.6,1.1-7,1.1c-5,0-8.9-1.4-11.7-4.3c-2.8-2.8-4.1-6.7-4.1-11.7
			V17.2h-11.8v-3.5h11.8V0h4v13.7h20.5v3.5h-20.5v42.6c0,4.2,1,7.5,3.1,9.7c2.1,2.2,5.1,3.4,9.1,3.4c4,0,7.4-1.2,10.1-3.7L159.6,72z
			"/>
		<path class="st0" d="M170.7,72.3c-4.7-2.7-8.3-6.4-11-11.2c-2.6-4.8-4-10.2-4-16.3c0-6.1,1.3-11.5,4-16.3c2.6-4.8,6.3-8.5,11-11.2
			c4.7-2.7,9.9-4,15.7-4c5.8,0,11.1,1.3,15.7,4c4.6,2.7,8.3,6.4,10.9,11.2s4,10.2,4,16.3c0,6.1-1.3,11.5-4,16.3
			c-2.6,4.8-6.3,8.5-10.9,11.2c-4.6,2.7-9.9,4-15.7,4C180.6,76.3,175.4,75,170.7,72.3z M200,69.2c4-2.4,7.2-5.7,9.5-9.9
			c2.3-4.2,3.5-9.1,3.5-14.5c0-5.4-1.2-10.3-3.5-14.5c-2.3-4.2-5.5-7.5-9.5-9.8c-4-2.4-8.6-3.5-13.6-3.5c-5,0-9.6,1.2-13.6,3.5
			c-4,2.4-7.2,5.6-9.5,9.8c-2.3,4.2-3.5,9-3.5,14.5c0,5.4,1.2,10.3,3.5,14.5c2.3,4.2,5.5,7.5,9.5,9.9c4,2.4,8.6,3.5,13.6,3.5
			C191.4,72.7,195.9,71.5,200,69.2z"/>
		<path class="st0" d="M272.3,20c4.5,4.5,6.7,11,6.7,19.4V76h-4V39.6c0-7.4-1.9-13-5.6-16.9c-3.7-3.9-9-5.8-15.9-5.8
			c-7.8,0-13.9,2.3-18.4,6.9c-4.5,4.6-6.7,10.8-6.7,18.5V76h-4V13.7h3.8v15.2c2-4.9,5.2-8.7,9.7-11.5c4.4-2.8,9.7-4.2,15.9-4.2
			C261.7,13.2,267.8,15.5,272.3,20z"/>
	</g>
	<path class="st1" d="M92.9,39.2c-3.1,0-5.6,2.5-5.6,5.6c0,3.1,2.5,5.6,5.6,5.6c3.1,0,5.6-2.5,5.6-5.6C98.5,41.7,96,39.2,92.9,39.2z
		 M74.1,25.8c3.2-3.2,10-2,17.4,2.4c-1.5,1-3.1,2.2-4.6,3.4c-5.3,0.5-10.1,1.7-14,3.4C71.9,31,72.2,27.7,74.1,25.8L74.1,25.8z
		 M111.8,25.8c2,2,2.3,5.3,1.2,9.2c-3.9-1.7-8.7-2.8-14-3.4c-1.5-1.3-3.1-2.4-4.6-3.4C101.8,23.8,108.6,22.6,111.8,25.8L111.8,25.8z
		 M118,50.4c-0.8,0.7-1.8,1.5-2.9,2.1c-0.8-2-1.9-4.1-3.2-6.2c1.7-2.8,3-5.5,3.9-8.1c3.1,2,5,4.4,5,7c0,0.5-0.1,1-0.2,1.5
		c-0.1,0.2-0.1,0.4-0.2,0.6c-0.1,0.2-0.2,0.5-0.3,0.7c-0.1,0.2-0.2,0.3-0.3,0.5c-0.1,0.2-0.3,0.4-0.4,0.6c-0.2,0.3-0.5,0.6-0.7,0.9
		C118.4,50,118.2,50.2,118,50.4L118,50.4z M113.4,65.1c-3.2,3.2-9.8,2-17-2.2c0.9-0.6,1.8-1.3,2.6-2c1-0.1,2-0.2,3-0.4
		c1-0.1,1.9-0.3,2.8-0.5c0.9-0.2,1.8-0.4,2.7-0.6c2.2-0.6,4.2-1.3,6-2.1c0.5-0.2,0.9-0.4,1.3-0.6C115.6,60.2,115.2,63.2,113.4,65.1
		L113.4,65.1z M72.5,65.1c-1.8-1.8-2.2-4.8-1.4-8.4c0.4,0.2,0.9,0.4,1.3,0.6c0.7,0.3,1.5,0.6,2.3,0.9c1.2,0.5,2.6,0.9,4,1.2
		c0.8,0.2,1.6,0.4,2.4,0.6c0.9,0.2,1.9,0.4,2.8,0.5c0.9,0.1,1.8,0.3,2.8,0.4c0.1,0,0.2,0,0.2,0c0.9,0.7,1.7,1.4,2.6,2
		C82.3,67.1,75.6,68.2,72.5,65.1L72.5,65.1z M92.9,31.3c-1.1,0-2.2,0-3.3,0.1c1.1-0.8,2.2-1.6,3.3-2.3c1.1,0.7,2.2,1.5,3.3,2.3
		C95.2,31.4,94.1,31.3,92.9,31.3z M103.5,35.7c-0.8-0.8-1.6-1.5-2.4-2.3c4.4,0.6,8.3,1.6,11.5,3c-0.7,2-1.7,4.1-3,6.4
		C107.8,40.4,105.8,38,103.5,35.7L103.5,35.7z M76.3,42.8c-1.3-2.2-2.3-4.4-3-6.4c3.2-1.4,7.1-2.4,11.5-3c-0.8,0.7-1.6,1.5-2.4,2.3
		C80.1,38,78.1,40.4,76.3,42.8L76.3,42.8z M100.8,54.1c-1.1,1.1-2.2,2.1-3.3,3.1c-1.5,0.1-3,0.2-4.5,0.2c-1.5,0-3-0.1-4.5-0.2
		c-1.1-1-2.2-2-3.3-3.1c-3.2-3.2-5.9-6.6-8-9.8c1.8-2.5,3.9-5,6.3-7.4c1.3-1.3,2.7-2.5,4-3.7c1.8-0.2,3.6-0.2,5.4-0.2
		s3.7,0.1,5.4,0.2c1.3,1.1,2.7,2.3,4,3.7c2.4,2.4,4.5,4.9,6.3,7.4C106.6,47.5,104,50.8,100.8,54.1L100.8,54.1z M76.3,54.9
		c-1.1-0.3-2.1-0.7-3-1.1c-0.4-0.2-0.8-0.3-1.1-0.5c0.7-1.8,1.6-3.6,2.8-5.5c1.9,2.9,4.3,5.8,7,8.6C79.9,55.9,78.1,55.4,76.3,54.9
		L76.3,54.9z M112.6,53.7c-1,0.4-1.9,0.8-3,1.1c-1.7,0.6-3.6,1.1-5.6,1.4c2.7-2.8,5.1-5.7,7-8.6c1.1,1.9,2.1,3.7,2.8,5.5
		C113.4,53.4,113,53.5,112.6,53.7L112.6,53.7z M66.8,49.3c-1.1-1.3-1.7-2.7-1.7-4.2c0-2.6,1.8-5,5-7c0.9,2.6,2.2,5.3,3.9,8.1
		c-1.3,2.1-2.4,4.2-3.2,6.2c-1.1-0.7-2.1-1.4-2.9-2.1C67.5,50,67.2,49.7,66.8,49.3L66.8,49.3z M69.4,55.7c0.1,0.1,0.2,0.1,0.3,0.2
		c-1.4,5-0.9,9.4,1.7,12c4.2,4.2,12.7,2.8,21.6-2.7c8.9,5.5,17.4,6.8,21.6,2.7c2.6-2.6,3.1-6.9,1.7-12c0.1-0.1,0.2-0.1,0.3-0.2
		c1.9-1.1,3.4-2.3,4.6-3.7c0.2-0.2,0.4-0.5,0.6-0.7c0.3-0.5,0.7-0.9,0.9-1.4c0.2-0.5,0.4-1,0.6-1.5c0.2-0.5,0.2-1,0.3-1.5
		c0-0.2,0-0.5,0-0.8c0-3.7-2.7-7-7.3-9.6c1.4-5,0.9-9.4-1.7-12c-4.2-4.2-12.7-2.8-21.6,2.7c-8.9-5.5-17.4-6.8-21.6-2.7
		c-2.6,2.6-3.1,6.9-1.7,12c-0.1,0.1-0.2,0.1-0.3,0.2c-0.9,0.6-1.8,1.1-2.5,1.8c-1,0.8-1.9,1.7-2.6,2.6c-1.2,1.6-1.9,3.3-1.9,5.1
		c0,0.2,0,0.5,0,0.8c0.1,0.5,0.2,1,0.3,1.5c0.2,0.5,0.4,1,0.6,1.5c0.2,0.5,0.6,0.9,0.9,1.4c0.3,0.3,0.6,0.7,0.9,1
		C66.2,53.6,67.7,54.7,69.4,55.7L69.4,55.7z"/>
</g>
</svg>
