<?xml version="1.0" encoding="utf-8"?>
<!-- Generator: Adobe Illustrator 26.3.1, SVG Export Plug-In . SVG Version: 6.00 Build 0)  -->
<svg version="1.1" id="Layer_1" xmlns="http://www.w3.org/2000/svg" xmlns:xlink="http://www.w3.org/1999/xlink" x="0px" y="0px"
	 viewBox="0 0 305.8 83" style="enable-background:new 0 0 305.8 83;" xml:space="preserve">
<style type="text/css">
	.st0{fill:#4B77BB;}
</style>
<g>
	<path class="st0" d="M0,82V17.9h7.4l2,7.1c3-2.2,6.6-4.1,10.7-5.7c4.1-1.6,8.3-2.5,12.7-2.5c4.7,0,8.5,1,11.4,3
		c2.9,2,5,4.6,6.4,7.9c1.4,3.3,2,6.8,2,10.7V82h-9.5V39.5c0-2.7-0.5-5.1-1.6-7.3c-1.1-2.1-2.6-3.8-4.6-5c-2-1.2-4.4-1.8-7.3-1.8
		c-2.6,0-5.1,0.3-7.4,0.8c-2.3,0.5-4.4,1.2-6.5,2.2c-2,0.9-4.2,2-6.4,3.3V82H0z"/>
	<path class="st0" d="M161,82c-4.2,0-7.6-0.7-10.3-2c-2.7-1.4-4.7-3.6-6-6.6c-1.3-3-1.9-7.1-1.8-12.1l0.4-35.5h-10.2v-6.1l10.3-1.7
		L145,0h7.3v17.9h18.5v7.8h-18.5v35.5c0,2.8,0.3,5,0.9,6.7s1.4,3,2.4,3.8c1,0.9,2.1,1.5,3.2,1.9c1.1,0.4,2.2,0.6,3.2,0.7l7.8,0.7v7
		H161z"/>
	<path class="st0" d="M209.3,82.7c-4.6,0-8.7-0.5-12.2-1.4c-3.5-1-6.4-2.6-8.7-5c-2.3-2.4-4-5.7-5.2-10c-1.1-4.3-1.7-9.7-1.7-16.4
		c0-6.7,0.6-12.2,1.7-16.5c1.1-4.3,2.8-7.6,5.2-10c2.3-2.4,5.2-4,8.7-4.9c3.5-0.9,7.5-1.4,12.2-1.4c4.6,0,8.7,0.5,12.2,1.4
		c3.5,1,6.4,2.6,8.7,5c2.3,2.4,4.1,5.7,5.2,10c1.2,4.3,1.7,9.7,1.7,16.4c0,6.7-0.6,12.2-1.7,16.5c-1.2,4.3-2.9,7.6-5.2,10
		c-2.3,2.4-5.2,4-8.7,5C218,82.2,213.9,82.7,209.3,82.7z M209.3,74.9c3,0,5.6-0.3,7.9-0.8c2.3-0.6,4.2-1.7,5.7-3.4
		c1.5-1.7,2.7-4.2,3.5-7.6c0.8-3.4,1.2-7.8,1.2-13.3c0-5.6-0.4-10-1.2-13.3c-0.8-3.3-2-5.8-3.5-7.4c-1.5-1.7-3.4-2.8-5.7-3.4
		c-2.3-0.6-4.9-0.8-7.9-0.8c-3,0-5.7,0.3-7.9,0.8c-2.2,0.6-4.1,1.7-5.6,3.4c-1.5,1.7-2.7,4.2-3.5,7.4c-0.8,3.3-1.2,7.7-1.2,13.3
		c0,5.5,0.4,10,1.2,13.3c0.8,3.4,2,5.9,3.5,7.6c1.5,1.7,3.4,2.8,5.6,3.4C203.6,74.6,206.2,74.9,209.3,74.9z"/>
	<path class="st0" d="M253.1,82V17.9h7.4l2,7.1c3-2.2,6.6-4.1,10.7-5.7c4.1-1.6,8.3-2.5,12.7-2.5c4.7,0,8.5,1,11.4,3
		c2.9,2,5,4.6,6.4,7.9c1.4,3.3,2,6.8,2,10.7V82h-9.5V39.5c0-2.7-0.5-5.1-1.6-7.3c-1.1-2.1-2.6-3.8-4.6-5c-2-1.2-4.4-1.8-7.3-1.8
		c-2.6,0-5.1,0.3-7.4,0.8c-2.3,0.5-4.4,1.2-6.5,2.2c-2,0.9-4.2,2-6.4,3.3V82H253.1z"/>
</g>
<g>
	<path class="st0" d="M76.6,75.1c0.5,4.6,4.4,8.1,9,7.9c4.6-0.1,8.4-3.8,8.6-8.4V21.8c-0.1-2.5-2.2-4.4-4.6-4.4s-4.5,1.9-4.6,4.4
		c0,1.2,0.5,2.3,1.4,3.1c0.4,0.4,0.5,1.2,0,1.6c-0.2,0.2-0.5,0.4-0.8,0.4c-0.3,0-0.6-0.1-0.8-0.3c-1.3-1.2-2.1-2.9-2.1-4.7
		c0-0.1,0-0.1,0-0.2h0c-0.5-0.1-1-0.1-1.5-0.1c-5.3-0.1-9.7,4.1-9.8,9.3c0,0.4,0,0.9,0.1,1.3c1.3,0,2.6,0.3,3.7,1
		c0.5,0.3,0.7,1,0.4,1.5c-0.3,0.5-1,0.7-1.6,0.4c-1.4-0.8-3.1-0.9-4.5-0.3c-1.1,0.5-2,1.4-2.4,2.6c-0.4,1.1-0.3,2.3,0.2,3.3
		c0.6,1.1,1.6,2,2.8,2.3c0.5,0.2,0.9,0.7,0.8,1.2c-0.1,0.6-0.6,1-1.1,1c-0.1,0-0.2,0-0.3,0c-0.7-0.2-1.3-0.5-1.9-0.9
		c-3.1,1.4-5.1,4.5-5.2,7.9c0.1,4.9,4.2,8.8,9.2,8.7c0.3,0,0.6,0.1,0.8,0.3c0.2,0.2,0.3,0.5,0.3,0.8c0,0.3-0.1,0.6-0.3,0.8
		c-0.2,0.2-0.5,0.3-0.8,0.3c-1,0-2.1-0.2-3.1-0.5c-1.2,1.2-1.9,2.8-1.9,4.5c0.1,3.6,3.1,6.4,6.7,6.4c0.6,0,1.2-0.1,1.8-0.2
		c1.6-0.4,3-1.4,3.9-2.8c0.2-0.3,0.4-0.4,0.7-0.5c0.3-0.1,0.6,0,0.9,0.2c0.3,0.2,0.4,0.4,0.5,0.7c0.1,0.3,0,0.6-0.2,0.9
		C79.8,73.3,78.3,74.4,76.6,75.1L76.6,75.1z M77.2,39.8c0.1-0.6,0.7-1,1.4-0.9c1.6,0.4,3.3-0.3,4.3-1.7c0.3-0.4,0.5-0.8,0.6-1.2
		c0.3-1.2,0-2.4-0.8-3.3c-0.2-0.3-0.5-0.5-0.8-0.7c-0.3-0.2-0.4-0.4-0.5-0.7c-0.1-0.3,0-0.6,0.2-0.9c0.4-0.5,1.1-0.6,1.6-0.3
		c0.5,0.3,0.9,0.7,1.2,1.1c1.2,1.4,1.7,3.4,1.3,5.2c-0.2,0.7-0.5,1.4-0.9,2c-0.1,0.2-0.3,0.3-0.4,0.5c0.1,1.8,1.4,3.4,3.2,3.7
		c0.6,0.1,1,0.6,0.9,1.2c-0.1,0.6-0.5,1-1.1,1c-0.1,0-0.1,0-0.2,0c-2.3-0.4-4.2-2.1-4.8-4.3c-0.9,0.4-1.8,0.6-2.8,0.6
		c-0.5,0-0.9,0-1.4-0.2c-0.3-0.1-0.5-0.2-0.7-0.5C77.2,40.4,77.1,40.1,77.2,39.8L77.2,39.8z M72.8,55.2L72.8,55.2
		c-0.4,0-0.8,0-1.2-0.1c-0.6-0.1-1-0.7-0.9-1.4c0.1-0.6,0.7-1,1.4-0.9c1.2,0.3,2.4-0.2,3.1-1.2c0.2-0.3,0.3-0.5,0.4-0.9
		c0.2-0.8,0-1.7-0.6-2.4c-0.2-0.2-0.4-0.4-0.6-0.5c-0.5-0.4-0.6-1.1-0.3-1.6c0.4-0.5,1-0.6,1.6-0.3c0.4,0.3,0.7,0.6,1,0.9
		c1,1.2,1.4,2.8,1,4.3c-0.1,0.6-0.4,1.2-0.7,1.7C76.1,54.4,74.5,55.2,72.8,55.2L72.8,55.2z M78.6,64L78.6,64
		c-0.2,0.2-0.4,0.4-0.7,0.5c-0.3,0-0.6,0-0.8-0.2c-0.5-0.4-0.6-1.1-0.3-1.6c1.5-2.1,4.1-3.1,6.7-2.6c0.1,0,0.1,0,0.2,0.1v0
		c0-1.5,0.6-3,1.7-4.1c0.2-0.2,0.5-0.3,0.8-0.4c0.3,0,0.6,0.1,0.8,0.3c0.2,0.2,0.3,0.5,0.3,0.8c0,0.3-0.1,0.6-0.3,0.8
		c-0.9,0.9-1.3,2.3-1,3.6c0.6,0.5,1.2,1,1.6,1.7c0.9,1.4,1.2,3,0.9,4.6c-0.1,0.5-0.6,0.9-1.1,0.9c-0.1,0-0.2,0-0.2,0
		c-0.6-0.1-1-0.7-0.9-1.3c0.2-1,0-2.1-0.5-2.9c-0.6-0.9-1.6-1.6-2.7-1.8C81.3,61.9,79.6,62.6,78.6,64L78.6,64z"/>
	<path class="st0" d="M119,60.9c4.9,0.1,9-3.8,9.1-8.7c0-3.4-2-6.5-5.1-7.9c-0.6,0.4-1.2,0.7-1.9,0.9c-0.1,0-0.2,0-0.3,0
		c-0.5,0-1-0.3-1.1-0.8c-0.2-0.6,0.2-1.2,0.8-1.4c1.2-0.3,2.2-1.2,2.8-2.3c0.5-1,0.6-2.2,0.2-3.3c-0.4-1.1-1.3-2.1-2.4-2.6
		c-1.5-0.7-3.2-0.6-4.5,0.3c-0.3,0.2-0.6,0.2-0.9,0.1c-0.3-0.1-0.5-0.3-0.7-0.5c-0.2-0.3-0.2-0.6-0.1-0.8s0.2-0.5,0.5-0.7
		c1.1-0.7,2.4-1,3.7-1c0.1-0.4,0.1-0.9,0.1-1.3c-0.1-5.3-4.5-9.5-9.8-9.3c-0.5,0-1,0-1.5,0.1v0.2c0,1.8-0.7,3.5-2,4.7
		c-0.2,0.2-0.5,0.3-0.8,0.3c-0.3,0-0.6-0.1-0.8-0.4c-0.4-0.5-0.4-1.2,0-1.6c0.9-0.8,1.3-1.9,1.3-3.1c-0.1-2.5-2.2-4.4-4.6-4.4
		c-2.5,0-4.5,1.9-4.6,4.4v52.8v0c0,0,0,0,0,0c0.2,4.6,3.9,8.3,8.5,8.4s8.5-3.3,9-7.9c-1.7-0.7-3.2-1.8-4.3-3.4
		c-0.3-0.5-0.2-1.2,0.3-1.6c0.2-0.2,0.6-0.2,0.8-0.2c0.3,0.1,0.6,0.2,0.7,0.5c0.9,1.4,2.3,2.4,3.8,2.8c0.6,0.2,1.2,0.3,1.9,0.2
		c3.6,0.1,6.6-2.8,6.7-6.4c0-1.7-0.7-3.3-2-4.5c-1,0.3-2,0.5-3.1,0.5c-0.3,0-0.6-0.1-0.8-0.3c-0.2-0.2-0.3-0.5-0.3-0.8
		c0-0.3,0.1-0.6,0.3-0.8C118.4,61,118.7,60.9,119,60.9L119,60.9z M103.1,42.8L103.1,42.8c1.8-0.3,3.2-1.9,3.2-3.7
		c-0.2-0.2-0.3-0.3-0.5-0.5c-1.5-2.2-1.4-5.2,0.4-7.2c0.4-0.4,0.8-0.8,1.2-1.1c0.2-0.2,0.5-0.2,0.8-0.2c0.3,0.1,0.6,0.2,0.7,0.5
		c0.2,0.2,0.2,0.6,0.2,0.9c-0.1,0.3-0.2,0.6-0.5,0.7c-0.3,0.2-0.6,0.4-0.8,0.7c-0.8,0.9-1.1,2.1-0.8,3.3c0.1,0.4,0.3,0.8,0.5,1.2
		c1,1.4,2.7,2.1,4.3,1.7c0.6-0.1,1.2,0.2,1.4,0.9c0.1,0.3,0,0.6-0.2,0.9c-0.2,0.2-0.4,0.4-0.7,0.5c-0.5,0.1-0.9,0.2-1.4,0.2
		c-1,0-1.9-0.2-2.8-0.7c-0.6,2.2-2.5,3.9-4.8,4.4c-0.1,0-0.1,0-0.2,0c-0.5,0-1-0.4-1.1-0.9C102.1,43.5,102.5,42.9,103.1,42.8
		L103.1,42.8z M113.6,64.3c-0.2,0.2-0.5,0.2-0.8,0.2c-0.3-0.1-0.6-0.2-0.7-0.5c-1-1.4-2.7-2-4.4-1.7c-1.1,0.2-2.1,0.9-2.7,1.8
		c-0.6,0.9-0.8,1.9-0.6,2.9c0.1,0.3,0,0.6-0.2,0.8c-0.2,0.3-0.4,0.4-0.7,0.5c-0.1,0-0.2,0-0.2,0c-0.5,0-1-0.4-1.1-0.9
		c-0.3-1.6,0-3.3,0.9-4.6c0.4-0.6,1-1.2,1.6-1.7c0.3-1.3-0.1-2.6-1-3.6c-0.2-0.2-0.3-0.5-0.3-0.8c0-0.3,0.1-0.6,0.3-0.8
		c0.2-0.2,0.5-0.3,0.8-0.3c0.3,0,0.6,0.1,0.8,0.4c1,1.1,1.7,2.6,1.7,4.1c0.1,0,0.1,0,0.2-0.1v0c2.5-0.5,5.1,0.5,6.6,2.6
		c0.2,0.2,0.2,0.5,0.2,0.9C114,63.8,113.9,64.1,113.6,64.3L113.6,64.3z M113.5,52.9c-0.4-0.5-0.6-1-0.7-1.6c-0.4-1.5,0-3.2,1-4.3
		c0.3-0.3,0.6-0.7,1-0.9c0.5-0.3,1.2-0.2,1.6,0.3c0.2,0.2,0.2,0.5,0.2,0.8c-0.1,0.3-0.2,0.6-0.5,0.7c-0.2,0.2-0.4,0.3-0.6,0.5
		c-0.6,0.6-0.8,1.5-0.6,2.3c0.1,0.3,0.2,0.6,0.4,0.9c0.7,1,1.9,1.5,3.1,1.2c0.3-0.1,0.6,0,0.9,0.2c0.2,0.2,0.4,0.4,0.5,0.7
		c0.1,0.6-0.2,1.2-0.8,1.4c-0.4,0.1-0.8,0.1-1.2,0.1C116.1,55.2,114.5,54.4,113.5,52.9L113.5,52.9z"/>
</g>
</svg>
