<?xml version="1.0" encoding="utf-8"?>
<!-- Generator: Adobe Illustrator 26.3.1, SVG Export Plug-In . SVG Version: 6.00 Build 0)  -->
<svg version="1.1" id="Laag_1" xmlns="http://www.w3.org/2000/svg" xmlns:xlink="http://www.w3.org/1999/xlink" x="0px" y="0px"
	 viewBox="0 0 874 246" style="enable-background:new 0 0 874 246;" xml:space="preserve">
<style type="text/css">
	.st0{fill:#3B82F6;}
</style>
<g>
	<path class="st0" d="M206.4,11v235.2L51.6,108.9V235H-0.3V-0.2l154.6,137.3V11H206.4z"/>
	<path class="st0" d="M251.2,120.8c7.2-11.5,17.3-20.5,30.1-26.9c12.8-6.4,27.2-9.6,43.2-9.6s30.3,3.2,43,9.6
		c12.7,6.4,22.7,15.4,30.1,26.9c7.4,11.5,11,25.1,11,40.6c0,15.4-3.7,28.8-11,40.3c-7.4,11.5-17.4,20.5-30.1,26.9
		c-12.7,6.4-27,9.6-43,9.6s-30.4-3.2-43.2-9.6c-12.8-6.4-22.8-15.4-30.1-26.9c-7.3-11.5-10.9-25-10.9-40.3
		C240.4,145.8,244,132.3,251.2,120.8z M294.8,181.1c3.2,5.4,7.4,9.7,12.5,12.6c5.1,3,10.9,4.5,17.3,4.5c6.2,0,11.9-1.5,17.1-4.5
		c5.2-3,9.4-7.2,12.5-12.6c3.1-5.4,4.6-12,4.6-19.7s-1.5-14.3-4.6-19.8c-3.1-5.5-7.3-9.8-12.5-12.8c-5.2-3-10.9-4.5-17.1-4.5
		c-6.4,0-12.2,1.5-17.3,4.5c-5.1,3-9.3,7.3-12.5,12.8c-3.2,5.5-4.8,12.2-4.8,19.8S291.6,175.6,294.8,181.1z"/>
	<path class="st0" d="M519.1,87.8v40h-98.6v-40H519.1z M492.8,36.6V235h-46.4V36.6H492.8z"/>
	<path class="st0" d="M541.8,120.8c7.2-11.5,17.3-20.5,30.1-26.9c12.8-6.4,27.2-9.6,43.2-9.6s30.3,3.2,43,9.6
		c12.7,6.4,22.7,15.4,30.1,26.9c7.4,11.5,11,25.1,11,40.6c0,15.4-3.7,28.8-11,40.3c-7.4,11.5-17.4,20.5-30.1,26.9
		c-12.7,6.4-27,9.6-43,9.6s-30.4-3.2-43.2-9.6c-12.8-6.4-22.8-15.4-30.1-26.9c-7.3-11.5-10.9-25-10.9-40.3
		C530.9,145.8,534.5,132.3,541.8,120.8z M585.3,181.1c3.2,5.4,7.4,9.7,12.5,12.6c5.1,3,10.9,4.5,17.3,4.5c6.2,0,11.9-1.5,17.1-4.5
		c5.2-3,9.4-7.2,12.5-12.6c3.1-5.4,4.6-12,4.6-19.7s-1.5-14.3-4.6-19.8c-3.1-5.5-7.3-9.8-12.5-12.8c-5.2-3-10.9-4.5-17.1-4.5
		c-6.4,0-12.2,1.5-17.3,4.5c-5.1,3-9.3,7.3-12.5,12.8c-3.2,5.5-4.8,12.2-4.8,19.8S582.1,175.6,585.3,181.1z"/>
	<path class="st0" d="M819.1,125.2c-3.3-4.7-8.8-7-16.5-7c-5.1,0-9.6,1.1-13.4,3.2c-3.8,2.1-6.8,5.2-9,9.3c-2.1,4.1-3.2,9-3.2,14.7
		V235h-48.6V87.8H777v22.1c4.3-8.1,10.1-14.4,17.4-18.9c7.4-4.5,16.5-6.7,27.4-6.7c18.3,0,31.7,4.9,40,14.7
		c8.3,9.8,12.5,23.6,12.5,41.3V235H824v-89.6C824,136.7,822.4,129.9,819.1,125.2z"/>
</g>
</svg>
